<?xml version="1.0" standalone="no"?>
<!DOCTYPE svg PUBLIC "-//W3C//DTD SVG 20010904//EN"
 "http://www.w3.org/TR/2001/REC-SVG-20010904/DTD/svg10.dtd">
<svg version="1.0" xmlns="http://www.w3.org/2000/svg"
 width="512.000000pt" height="512.000000pt" viewBox="0 0 512.000000 512.000000"
 preserveAspectRatio="xMidYMid meet">
<metadata>
Created by potrace 1.14, written by Peter Selinger 2001-2017
</metadata>
<g transform="translate(0.000000,512.000000) scale(0.100000,-0.100000)"
fill="#000000" stroke="none">
<path d="M2090 4990 c-57 -7 -104 -18 -199 -46 -41 -12 -134 -61 -182 -96 -63
-45 -190 -159 -266 -238 -172 -178 -291 -422 -333 -685 -7 -38 -18 -81 -26
-95 -50 -89 -67 -138 -72 -201 -8 -116 27 -216 102 -287 32 -30 45 -54 59
-103 10 -35 27 -86 38 -113 22 -56 24 -87 8 -153 -19 -80 -41 -122 -81 -158
-44 -40 -51 -75 -15 -75 28 0 119 43 164 76 l32 24 11 -53 c6 -29 17 -64 24
-79 12 -23 11 -28 -11 -54 -41 -48 -79 -106 -102 -159 -31 -70 -113 -303 -125
-357 l-6 -28 -166 0 c-99 0 -173 -4 -186 -11 -42 -22 -50 -70 -38 -213 12
-142 23 -283 42 -529 12 -159 10 -180 -22 -252 -5 -11 -21 -56 -36 -100 -36
-109 -39 -269 -6 -360 12 -32 22 -61 22 -62 0 -2 -162 -3 -360 -3 l-360 0 0
-24 0 -24 908 -7 c499 -4 1611 -5 2472 -1 892 4 1570 3 1578 -2 9 -6 12 -45
10 -158 l-3 -149 -2483 -3 -2482 -2 0 -25 0 -25 2329 0 c2114 0 2329 -1 2335
-16 3 -9 6 -45 6 -80 0 -61 1 -64 25 -64 23 0 24 3 27 78 l3 77 140 3 c96 2
142 6 147 15 4 7 8 94 8 194 0 153 -2 184 -16 198 -14 13 -47 16 -243 15 -180
-1 -226 2 -224 12 12 76 17 83 67 90 58 8 146 60 185 109 47 58 63 105 62 192
0 63 -5 87 -26 130 -44 87 -127 151 -213 164 -46 7 -62 19 -62 47 0 44 -12 46
-259 46 -130 0 -242 4 -249 8 -9 7 -12 51 -10 188 l3 179 32 9 c32 10 48 30
37 47 -3 5 -25 9 -50 9 -52 0 -110 33 -137 80 -24 39 -57 41 -57 3 1 -30 35
-74 85 -110 l30 -21 0 -193 0 -194 -82 -3 c-50 -2 -85 -8 -92 -16 -6 -7 -12
-74 -13 -157 l-3 -144 -70 -3 c-93 -3 -136 17 -149 72 -9 39 -3 156 40 811 l7
110 -31 33 -30 32 -176 0 c-150 0 -176 2 -176 15 0 8 -4 23 -9 33 -5 9 -21 47
-35 85 -37 97 -65 154 -104 216 l-34 55 36 29 c44 35 117 138 134 188 7 19 12
49 12 67 0 36 13 48 32 29 24 -24 150 -87 174 -87 36 0 31 35 -10 70 -19 17
-42 47 -52 67 -15 34 -44 157 -44 191 0 7 21 33 48 57 106 98 148 255 102 385
-16 44 -19 83 -20 200 -1 240 -32 375 -138 600 -51 106 -167 264 -311 422
-110 121 -259 194 -481 238 -112 22 -318 32 -410 20z m355 -61 c70 -12 182
-37 210 -48 64 -24 180 -89 229 -127 92 -73 176 -200 224 -339 56 -166 86
-438 87 -800 0 -185 -2 -214 -19 -247 -12 -25 -19 -64 -21 -115 -1 -43 -8 -91
-15 -108 -72 -169 -126 -252 -228 -353 -199 -197 -484 -296 -756 -262 -264 33
-458 123 -632 295 -117 115 -194 241 -227 372 -22 85 -21 355 1 351 15 -3 19
-9 45 -70 9 -20 32 -48 51 -63 38 -29 87 -37 416 -65 156 -13 196 -13 221 0
15 9 21 7 26 -6 10 -27 -14 -121 -47 -185 -16 -32 -30 -63 -30 -69 0 -39 154
-146 199 -138 23 5 26 37 4 44 -42 12 -103 48 -129 75 -25 26 -26 30 -13 46
35 42 55 110 68 223 5 47 16 110 25 140 8 30 18 67 21 82 6 31 52 78 76 78 44
0 78 -78 79 -178 0 -66 29 -115 86 -142 31 -15 76 -22 194 -30 84 -6 156 -13
160 -15 4 -3 62 -5 128 -6 134 -1 163 8 204 62 12 17 33 41 45 54 17 20 24 48
36 152 8 70 13 131 10 136 -2 4 -16 7 -30 7 -15 0 -36 8 -47 19 -25 22 -95 29
-651 70 -241 18 -396 30 -510 40 -327 30 -393 33 -488 29 -58 -3 -116 -3 -131
-1 -30 6 -30 12 5 183 83 411 219 659 439 799 110 70 232 110 375 125 57 5
239 -3 310 -15z m-1208 -1156 c-4 -38 -7 -101 -7 -140 0 -57 -3 -73 -14 -73
-21 0 -46 40 -46 73 0 40 -24 30 -28 -12 -4 -41 17 -73 62 -95 l36 -17 0 -67
c0 -37 -4 -73 -9 -81 -21 -34 -102 25 -143 102 -28 55 -35 159 -14 229 21 74
90 148 137 148 l32 0 -6 -67z m592 5 c106 -10 121 -13 105 -25 -14 -11 -16
-17 -6 -35 6 -13 13 -41 14 -63 2 -32 7 -40 23 -40 17 0 20 8 23 53 2 37 -2
62 -13 78 -8 13 -14 24 -12 24 18 0 72 -38 93 -65 23 -31 25 -41 21 -97 -12
-158 -19 -173 -92 -210 -37 -19 -46 -20 -145 -10 -58 6 -148 14 -200 18 -111
7 -156 18 -188 48 -41 37 -54 83 -46 161 7 80 14 101 41 132 51 58 73 60 382
31z m883 -70 c145 -11 147 -12 132 -32 -8 -11 -14 -32 -14 -46 0 -32 34 -71
55 -64 17 7 21 44 5 44 -5 0 -10 20 -10 45 0 51 -2 49 54 33 90 -25 122 -84
111 -206 -8 -86 -32 -130 -88 -158 -35 -19 -139 -16 -370 7 -132 13 -166 28
-199 89 -17 30 -19 48 -14 119 7 92 25 128 80 162 37 22 63 23 258 7z m613
-121 c61 -35 90 -94 90 -187 0 -62 -5 -85 -29 -134 -16 -32 -46 -75 -67 -96
-64 -61 -160 -79 -131 -24 5 11 13 45 17 77 6 52 11 62 55 103 51 47 67 75 54
95 -4 7 -21 -5 -46 -32 l-39 -44 5 35 c3 19 9 76 12 125 6 79 15 105 34 105 3
0 23 -11 45 -23z m-1684 -923 c136 -92 356 -174 464 -174 19 0 37 -4 40 -10 6
-10 -161 -180 -177 -180 -24 0 -169 67 -221 102 -96 65 -217 198 -217 239 0
14 39 59 51 59 4 0 31 -16 60 -36z m-161 -11 c0 -66 124 -217 235 -289 71 -45
197 -104 222 -104 10 0 40 -22 67 -49 47 -47 48 -50 34 -77 l-13 -29 -425 -3
c-233 -1 -427 1 -432 6 -4 4 4 44 18 87 88 277 147 391 236 455 51 37 58 37
58 3z m1350 -15 c0 -28 -109 -156 -175 -206 -71 -53 -200 -122 -230 -122 -9 0
-26 -5 -37 -11 -18 -10 -30 -1 -109 77 -48 48 -86 91 -84 94 2 4 58 10 123 13
115 6 236 30 312 64 71 31 121 57 153 79 37 27 47 29 47 12z m163 -58 c-3 -11
-9 -20 -14 -20 -10 0 -12 24 -2 33 13 13 21 7 16 -13z m-43 -79 c45 -44 71
-81 105 -152 53 -110 97 -228 89 -241 -3 -4 -192 -8 -419 -8 -399 0 -415 1
-425 19 -5 11 -10 28 -10 38 0 27 58 79 105 93 173 55 308 137 395 243 37 45
62 66 77 67 14 0 45 -22 83 -59z m-710 -166 l63 -64 -42 -46 c-23 -26 -41 -52
-38 -58 22 -59 24 -57 -52 -57 l-71 0 6 38 c5 33 2 41 -30 71 -20 19 -36 41
-36 48 0 13 117 133 130 133 3 0 34 -29 70 -65z m2260 -1357 l0 -341 -26 -34
-25 -33 -282 2 -281 3 -23 34 c-23 34 -23 36 -23 372 l0 339 330 0 330 0 0
-342z m155 231 c97 -46 145 -122 145 -232 0 -63 -4 -79 -28 -118 -49 -76 -128
-129 -193 -129 l-29 0 0 250 0 250 30 0 c17 0 50 -9 75 -21z m-3854 -331 c5
-84 12 -181 15 -215 11 -114 -18 -121 -62 -16 -24 57 -28 78 -27 162 0 60 7
118 18 156 16 54 32 81 43 70 2 -2 8 -73 13 -157z m2775 56 c21 -82 15 -211
-15 -286 -12 -32 -27 -58 -32 -58 -12 0 -11 113 2 263 14 173 19 180 45 81z
m214 -130 c3 -104 9 -197 14 -206 7 -17 -1 -18 -103 -18 -102 0 -123 5 -104
24 44 44 55 280 18 378 -6 15 2 16 82 14 l88 -3 5 -189z"/>
<path d="M1715 4186 c-79 -20 -127 -44 -167 -84 -66 -64 -44 -92 29 -36 65 50
114 70 206 85 62 9 77 15 75 28 -4 21 -75 24 -143 7z"/>
<path d="M2681 4182 c-8 -6 -11 -17 -8 -26 5 -13 21 -16 76 -16 79 0 143 -18
255 -73 78 -38 106 -39 93 -3 -6 15 -117 72 -197 101 -53 19 -199 30 -219 17z"/>
<path d="M2676 3003 c-3 -3 -6 -16 -6 -28 0 -34 -55 -111 -107 -150 -43 -31
-54 -35 -103 -33 -42 1 -55 -1 -55 -13 0 -21 105 -25 145 -4 72 37 150 139
150 197 0 27 -12 43 -24 31z"/>
<path d="M4187 2624 c-4 -4 -7 -48 -7 -98 0 -95 -14 -267 -30 -371 -5 -33 -11
-69 -12 -80 -2 -14 4 -21 19 -23 32 -5 42 26 59 191 19 180 16 381 -6 385 -9
1 -19 0 -23 -4z"/>
<path d="M3957 2214 c-17 -17 -6 -98 18 -140 30 -51 63 -76 130 -98 57 -20 95
-14 95 14 0 14 -9 21 -37 26 -91 15 -150 74 -162 159 -6 38 -27 56 -44 39z"/>
<path d="M4260 2134 c0 -9 9 -27 20 -41 21 -28 26 -73 10 -103 -5 -10 -25 -27
-45 -39 -67 -39 -31 -77 38 -39 76 43 95 126 46 205 -22 36 -69 47 -69 17z"/>
<path d="M3875 2080 c-4 -6 -3 -25 1 -43 15 -69 76 -137 150 -167 61 -25 88
-23 92 7 3 18 -5 24 -51 37 -62 18 -107 61 -138 132 -17 42 -40 56 -54 34z"/>
</g>
</svg>
